<?xml version="1.0" encoding="UTF-8"?>
<svg xmlns="http://www.w3.org/2000/svg" viewBox="0 0 1095 1095" width="1095" height="1095">
<path d="M536.62 104.36C547.76 103.16 559.38 104.14 570.5 104.9C584.41 105.85 598.38 106.23 612.19 108.47C628.92 111.2 645.43 115.01 661.76 119.64C783 154.02 877.47 237.86 931.62 350.8C950.95 391.11 962.78 435.43 969.28 479.42C973.83 510.3 976.7 542.87 973.53 574.23C971.67 592.57 970.07 610.94 966.5 629.07C960.57 659.22 950.9 688.36 939.27 716.77C932.37 733.63 923.41 750.02 914.2 765.7C880.36 823.28 834.35 872.14 778.88 909.37C757.19 923.93 733.14 935.32 709.22 945.65C664.73 964.86 615.48 973.92 567.5 976.91C532.1 979.12 494.88 975.28 460.36 968.32C298.26 935.65 175.44 810.04 130.29 653.26C110.31 583.87 112.17 502.34 130.41 432.81C162.07 312.11 242.76 213.51 351.7 154.22C369.3 144.64 387.81 135.96 406.78 129.39C434 119.96 462.21 112.41 490.69 108.4C505.96 106.24 521.33 106.02 536.62 104.36ZM777.5 445.03C780.84 441.11 780.52 435.16 783.47 430.96C785.13 428.6 788.28 428.62 790.35 426.86C794.55 423.3 798.83 416.75 801.46 411.97C809.59 397.17 794.71 373.84 781.4 367.1C765.23 358.92 745.47 365.72 736.16 380.68C731.57 388.05 729.45 402.01 718.47 403.04C716.67 403.21 706.12 398.09 702.36 397.32C688.28 394.44 672.85 393.24 658.93 397.47C640.47 403.09 617.63 420.87 603.65 434.15C595.47 441.93 587.99 450.65 578.89 457.42C574.89 460.4 569.94 464.94 565.21 466.58C562.51 467.51 559.39 467.63 556.61 468.27C542.18 471.59 526.42 474.91 514.09 483.58C505.41 489.69 498.83 497.71 493.01 506.52C489.99 511.09 487.09 515.78 482.88 519.4C471.72 529 457.86 535.01 445.65 543.1C438.66 547.72 431.72 552.43 425.12 557.6C416.56 564.31 408.08 571.89 398.27 576.79C393.61 579.11 383.2 579.97 377.39 581.79C357.02 588.18 342.52 601.55 326.69 615.16C319.12 621.66 311.07 627.57 303.17 633.64C295.44 639.59 281.54 650.26 272.28 652.73C270.47 653.21 268.63 653.02 266.79 653.39C258.89 654.95 252.5 659.67 245.39 662.94C242.79 664.13 239.8 663.97 238.05 666.6C236.31 669.23 237.11 672.71 237.94 675.51C239.68 681.46 242.52 688.27 246.06 693.38C247.38 695.29 249.63 695.79 250.68 697.78C252.3 700.87 252.59 705.05 253.28 708.44C254.76 715.72 256.51 723.49 260.67 729.81C265.01 736.39 272.26 737.08 279.5 737.29C286.3 737.48 295.1 738.57 301.58 736.2C303.68 735.44 304.62 733.73 306.52 732.83C308.21 732.03 310.25 732.4 311.93 731.42C315.31 729.47 314.72 724.59 312.52 722.01C308.6 717.41 299.35 717.66 296.32 712.21C293.39 706.94 296.09 693.13 297.91 687.5C298.54 685.55 299.79 683.88 300.45 681.96C301.35 679.34 300.22 676.9 302.25 674.76C306.47 670.34 313.27 667.14 318.46 663.98C335.07 653.9 352.62 646.12 370.8 639.34C378.02 636.65 385.25 633.39 391.83 629.36C395.83 626.92 399.8 623.4 404.14 621.63C407 620.47 410.45 620.45 413.49 619.87C418.53 618.9 423.61 617.62 428.46 615.9C435.35 613.47 440.91 608.6 447.53 606C454.34 603.32 462.25 602.54 469.34 600.75C488.42 595.95 508.25 589.8 525.32 579.82C532.69 575.51 540.45 571.1 546.68 565.17C551.69 560.4 555.25 554.37 560.13 549.62C564.15 545.72 569.78 543.27 574.07 539.56C577.69 536.44 580.76 531.84 584.76 529.26C589.9 525.94 597.19 524.89 602.81 522.34C610.91 518.66 618.04 513.29 626.03 509.51C631.87 506.75 638.22 505.27 644.04 502.51C649.16 500.08 653.8 497.33 657.98 493.48C661.86 489.9 664.03 485.91 669.5 485.12C670.46 489.43 670.33 494 671.28 498.39C672.46 503.89 675.13 508.97 676.24 514.47C677.13 518.91 676.45 523.61 677.53 527.98C678.19 530.68 679.85 533.04 680.83 535.62C683.21 541.89 684.92 548.41 688.16 554.34C692.79 562.82 698.96 570.21 704.31 578.21C707.78 583.39 711.41 588.65 714.37 594.14C715.6 596.44 716.26 599.45 718.13 601.35C720.26 603.51 723.45 605.34 726.22 606.5C721.12 607.56 715.71 607.03 710.5 607.02C702.17 607 693.83 607.08 685.5 607.07C680.35 607.07 673.26 605.72 668.82 608.5C666.66 613.33 667.01 622.61 668.5 627.68C671.73 629.76 675.36 629.04 678.99 630.19C678.99 663.7 678.99 697.22 678.99 730.74C684.11 733.3 694.09 733.3 699.5 731.39C702.4 725.61 700.63 712.35 700.64 705.5C700.67 688.83 700.69 672.17 700.65 655.5C700.63 647.35 699.14 637.35 701.5 629.64C713.65 628.49 726.29 629.4 738.5 629.42C759.5 629.45 780.5 629.41 801.5 629.41C810.83 629.4 820.17 629.42 829.5 629.46C834.04 629.49 839.4 628.61 843.5 630.43C844.08 638.05 843.62 645.85 843.64 653.5C843.66 669.17 843.67 684.83 843.61 700.5C843.58 709.47 841.93 722.87 844.5 731.15C849.37 733.29 858.51 732.92 863.62 731.5C866.94 726.12 865.04 710.38 865.04 703.5C865.04 687.5 865.04 671.5 865.04 655.5C865.04 647.29 864.02 638.24 865.5 630.19C870.17 629.59 874.83 629 879.5 628.4C882.22 624.06 882.05 613.14 879.95 608.5C876.65 606.3 872.38 607.06 868.5 607.06C860.5 607.06 852.5 607.06 844.5 607.05C823.83 607.04 803.17 607.01 782.5 607.01C772.48 607.01 761.48 608.3 751.64 606.5C756.89 605.08 762 603.43 767.5 603.9C774.42 604.51 786.14 608.4 791.94 603.5C790.6 600.3 787.66 599.5 784.66 597.83C781.66 596.17 778.59 593.25 775.32 592.25C772.2 591.3 768.8 591.49 765.63 590.74C762.33 589.95 760.03 588.05 756.5 587.98C752.13 587.89 741.13 589.73 737.97 586.56C735.24 583.82 734.6 578.38 733.6 574.81C732.17 569.72 730.11 564.66 729.14 559.46C728.03 553.55 727.74 547.48 726.75 541.54C725.58 534.46 723.8 527.22 720.82 520.67C719.08 516.84 715.71 512.66 715.07 508.46C714.32 503.42 716.51 497.62 716.78 492.5C717.02 487.89 717.16 483.1 716.78 478.5C716.49 474.9 715.34 471.14 715.92 467.51C716.47 464.04 719.37 460.54 720.67 457.24C722.31 453.08 722.76 448.77 723.89 444.5C728.69 443.5 733.48 442.5 738.28 441.5C741.63 445.1 743.87 451.88 748.95 453.5C753.93 455.08 755.4 451.49 759.26 449.73C760.56 449.14 761.99 449.31 763.27 448.77C766.17 447.53 768.86 445.38 771.41 443.5C773.44 444.01 775.47 444.52 777.5 445.03Z" fill="#080611" fill-rule="evenodd" stroke="#080611" stroke-width="0.25" stroke-linejoin="round"/>
<path d="M777.5 445.03C775.47 444.52 773.44 444.01 771.41 443.5C768.86 445.38 766.17 447.53 763.27 448.77C761.99 449.31 760.56 449.14 759.26 449.73C755.4 451.49 753.93 455.08 748.95 453.5C743.87 451.88 741.63 445.1 738.28 441.5C733.48 442.5 728.69 443.5 723.89 444.5C722.76 448.77 722.31 453.08 720.67 457.24C719.37 460.54 716.47 464.04 715.92 467.51C715.34 471.14 716.49 474.9 716.78 478.5C717.16 483.1 717.02 487.89 716.78 492.5C716.51 497.62 714.32 503.42 715.07 508.46C715.71 512.66 719.08 516.84 720.82 520.67C723.8 527.22 725.58 534.46 726.75 541.54C727.74 547.48 728.03 553.55 729.14 559.46C730.11 564.66 732.17 569.72 733.6 574.81C734.6 578.38 735.24 583.82 737.97 586.56C741.13 589.73 752.13 587.89 756.5 587.98C760.03 588.05 762.33 589.95 765.63 590.74C768.8 591.49 772.2 591.3 775.32 592.25C778.59 593.25 781.66 596.17 784.66 597.83C787.66 599.5 790.6 600.3 791.94 603.5C786.14 608.4 774.42 604.51 767.5 603.9C762 603.43 756.89 605.08 751.64 606.5C761.48 608.3 772.48 607.01 782.5 607.01C803.17 607.01 823.83 607.04 844.5 607.05C852.5 607.06 860.5 607.06 868.5 607.06C872.38 607.06 876.65 606.3 879.95 608.5C882.05 613.14 882.22 624.06 879.5 628.4C874.83 629 870.17 629.59 865.5 630.19C864.02 638.24 865.04 647.29 865.04 655.5C865.04 671.5 865.04 687.5 865.04 703.5C865.04 710.38 866.94 726.12 863.62 731.5C858.51 732.92 849.37 733.29 844.5 731.15C841.93 722.87 843.58 709.47 843.61 700.5C843.67 684.83 843.66 669.17 843.64 653.5C843.62 645.85 844.08 638.05 843.5 630.43C839.4 628.61 834.04 629.49 829.5 629.46C820.17 629.42 810.83 629.4 801.5 629.41C780.5 629.41 759.5 629.45 738.5 629.42C726.29 629.4 713.65 628.49 701.5 629.64C699.14 637.35 700.63 647.35 700.65 655.5C700.69 672.17 700.67 688.83 700.64 705.5C700.63 712.35 702.4 725.61 699.5 731.39C694.09 733.3 684.11 733.3 678.99 730.74C678.99 697.22 678.99 663.7 678.99 630.19C675.36 629.04 671.73 629.76 668.5 627.68C667.01 622.61 666.66 613.33 668.82 608.5C673.26 605.72 680.35 607.07 685.5 607.07C693.83 607.08 702.17 607 710.5 607.02C715.71 607.03 721.12 607.56 726.22 606.5C723.45 605.34 720.26 603.51 718.13 601.35C716.26 599.45 715.6 596.44 714.37 594.14C711.41 588.65 707.78 583.39 704.31 578.21C698.96 570.21 692.79 562.82 688.16 554.34C684.92 548.41 683.21 541.89 680.83 535.62C679.85 533.04 678.19 530.68 677.53 527.98C676.45 523.61 677.13 518.91 676.24 514.47C675.13 508.97 672.46 503.89 671.28 498.39C670.33 494 670.46 489.43 669.5 485.12C664.03 485.91 661.86 489.9 657.98 493.48C653.8 497.33 649.16 500.08 644.04 502.51C638.22 505.27 631.87 506.75 626.03 509.51C618.04 513.29 610.91 518.66 602.81 522.34C597.19 524.89 589.9 525.94 584.76 529.26C580.76 531.84 577.69 536.44 574.07 539.56C569.78 543.27 564.15 545.72 560.13 549.62C555.25 554.37 551.69 560.4 546.68 565.17C540.45 571.1 532.69 575.51 525.32 579.82C508.25 589.8 488.42 595.95 469.34 600.75C462.25 602.54 454.34 603.32 447.53 606C440.91 608.6 435.35 613.47 428.46 615.9C423.61 617.62 418.53 618.9 413.49 619.87C410.45 620.45 407 620.47 404.14 621.63C399.8 623.4 395.83 626.92 391.83 629.36C385.25 633.39 378.02 636.65 370.8 639.34C352.62 646.12 335.07 653.9 318.46 663.98C313.27 667.14 306.47 670.34 302.25 674.76C300.22 676.9 301.35 679.34 300.45 681.96C299.79 683.88 298.54 685.55 297.91 687.5C296.09 693.13 293.39 706.94 296.32 712.21C299.35 717.66 308.6 717.41 312.52 722.01C314.72 724.59 315.31 729.47 311.93 731.42C310.25 732.4 308.21 732.03 306.52 732.83C304.62 733.73 303.68 735.44 301.58 736.2C295.1 738.57 286.3 737.48 279.5 737.29C272.26 737.08 265.01 736.39 260.67 729.81C256.51 723.49 254.76 715.72 253.28 708.44C252.59 705.05 252.3 700.87 250.68 697.78C249.63 695.79 247.38 695.29 246.06 693.38C242.52 688.27 239.68 681.46 237.94 675.51C237.11 672.71 236.31 669.23 238.05 666.6C239.8 663.97 242.79 664.13 245.39 662.94C252.5 659.67 258.89 654.95 266.79 653.39C268.63 653.02 270.47 653.21 272.28 652.73C281.54 650.26 295.44 639.59 303.17 633.64C311.07 627.57 319.12 621.66 326.69 615.16C342.52 601.55 357.02 588.18 377.39 581.79C383.2 579.97 393.61 579.11 398.27 576.79C408.08 571.89 416.56 564.31 425.12 557.6C431.72 552.43 438.66 547.72 445.65 543.1C457.86 535.01 471.72 529 482.88 519.4C487.09 515.78 489.99 511.09 493.01 506.52C498.83 497.71 505.41 489.69 514.09 483.58C526.42 474.91 542.18 471.59 556.61 468.27C559.39 467.63 562.51 467.51 565.21 466.58C569.94 464.94 574.89 460.4 578.89 457.42C587.99 450.65 595.47 441.93 603.65 434.15C617.63 420.87 640.47 403.09 658.93 397.47C672.85 393.24 688.28 394.44 702.36 397.32C706.12 398.09 716.67 403.21 718.47 403.04C729.45 402.01 731.57 388.05 736.16 380.68C745.47 365.72 765.23 358.92 781.4 367.1C794.71 373.84 809.59 397.17 801.46 411.97C798.83 416.75 794.55 423.3 790.35 426.86C788.28 428.62 785.13 428.6 783.47 430.96C780.52 435.16 780.84 441.11 777.5 445.03Z" fill="#ffffff" fill-rule="evenodd" stroke="#ffffff" stroke-width="0.25" stroke-linejoin="round"/>
</svg>